<mxfile host="65bd71144e">
    <diagram id="efd7aKCfsBcA8Dt1WBM9" name="Page-1">
        <mxGraphModel dx="816" dy="427" grid="1" gridSize="10" guides="1" tooltips="1" connect="1" arrows="1" fold="1" page="1" pageScale="1" pageWidth="850" pageHeight="1100" background="none" math="0" shadow="0">
            <root>
                <mxCell id="0"/>
                <mxCell id="1" parent="0"/>
                <mxCell id="50" value="" style="edgeStyle=none;html=1;fontFamily=Garamond;" parent="1" source="12" target="10" edge="1">
                    <mxGeometry relative="1" as="geometry">
                        <mxPoint x="520" y="98.75" as="targetPoint"/>
                    </mxGeometry>
                </mxCell>
                <mxCell id="59" value="" style="group" parent="1" vertex="1" connectable="0">
                    <mxGeometry x="30" y="200" width="60" height="70" as="geometry"/>
                </mxCell>
                <mxCell id="22" value="" style="outlineConnect=0;dashed=0;verticalLabelPosition=bottom;verticalAlign=top;align=center;html=1;shape=mxgraph.aws3.internet_3;fillColor=#D2D3D3;gradientColor=none;" parent="59" vertex="1">
                    <mxGeometry width="60" height="40" as="geometry"/>
                </mxCell>
                <mxCell id="55" value="Internet" style="text;html=1;strokeColor=none;fillColor=none;align=center;verticalAlign=middle;whiteSpace=wrap;rounded=0;fontFamily=Garamond;" parent="59" vertex="1">
                    <mxGeometry y="40" width="60" height="30" as="geometry"/>
                </mxCell>
                <mxCell id="60" value="" style="group" parent="1" vertex="1" connectable="0">
                    <mxGeometry x="30" y="320" width="60" height="70" as="geometry"/>
                </mxCell>
                <mxCell id="40" value="Users" style="sketch=0;outlineConnect=0;fontColor=#232F3E;gradientColor=none;strokeColor=#232F3E;fillColor=#ffffff;dashed=0;verticalLabelPosition=bottom;verticalAlign=top;align=center;html=1;fontSize=12;fontStyle=0;aspect=fixed;shape=mxgraph.aws4.resourceIcon;resIcon=mxgraph.aws4.users;fontFamily=Garamond;" parent="60" vertex="1">
                    <mxGeometry x="10" width="40" height="40" as="geometry"/>
                </mxCell>
                <mxCell id="42" value="Users" style="text;html=1;strokeColor=none;fillColor=none;align=center;verticalAlign=middle;whiteSpace=wrap;rounded=0;fontFamily=Garamond;" parent="60" vertex="1">
                    <mxGeometry y="40" width="60" height="30" as="geometry"/>
                </mxCell>
                <mxCell id="29" value="" style="group" parent="1" vertex="1" connectable="0">
                    <mxGeometry x="240" y="80" width="555" height="310" as="geometry"/>
                </mxCell>
                <mxCell id="38" value="" style="group" parent="29" vertex="1" connectable="0">
                    <mxGeometry x="47.57142857142857" y="186.00000000000003" width="63.42857142857143" height="82.66666666666667" as="geometry"/>
                </mxCell>
                <mxCell id="32" value="" style="sketch=0;points=[[0,0,0],[0.25,0,0],[0.5,0,0],[0.75,0,0],[1,0,0],[0,1,0],[0.25,1,0],[0.5,1,0],[0.75,1,0],[1,1,0],[0,0.25,0],[0,0.5,0],[0,0.75,0],[1,0.25,0],[1,0.5,0],[1,0.75,0]];outlineConnect=0;fontColor=#232F3E;gradientColor=#945DF2;gradientDirection=north;fillColor=#5A30B5;strokeColor=#ffffff;dashed=0;verticalLabelPosition=bottom;verticalAlign=top;align=center;html=1;fontSize=12;fontStyle=0;aspect=fixed;shape=mxgraph.aws4.resourceIcon;resIcon=mxgraph.aws4.route_53;" parent="38" vertex="1">
                    <mxGeometry x="5.285714285714286" width="50" height="50" as="geometry"/>
                </mxCell>
                <mxCell id="33" value="&lt;p&gt;&lt;font face=&quot;Garamond&quot;&gt;Amazon Route 53&lt;/font&gt;&lt;/p&gt;" style="text;html=1;strokeColor=none;fillColor=none;align=center;verticalAlign=middle;whiteSpace=wrap;rounded=0;" parent="38" vertex="1">
                    <mxGeometry y="51.66666666666667" width="63.42857142857143" height="31.000000000000004" as="geometry"/>
                </mxCell>
                <mxCell id="39" value="" style="group" parent="29" vertex="1" connectable="0">
                    <mxGeometry y="20.000000000000004" width="555" height="279" as="geometry"/>
                </mxCell>
                <mxCell id="36" value="" style="group" parent="39" vertex="1" connectable="0">
                    <mxGeometry width="555" height="279" as="geometry"/>
                </mxCell>
                <mxCell id="27" value="" style="rounded=1;arcSize=10;dashed=0;fillColor=none;gradientColor=none;strokeWidth=2;movable=1;resizable=1;rotatable=1;deletable=1;editable=1;connectable=1;container=0;" parent="36" vertex="1">
                    <mxGeometry width="555" height="279" as="geometry"/>
                </mxCell>
                <mxCell id="37" value="" style="group" parent="36" vertex="1" connectable="0">
                    <mxGeometry x="253.71428571428572" y="62.00000000000001" width="63.42857142857143" height="82.66666666666667" as="geometry"/>
                </mxCell>
                <mxCell id="31" value="" style="sketch=0;points=[[0,0,0],[0.25,0,0],[0.5,0,0],[0.75,0,0],[1,0,0],[0,1,0],[0.25,1,0],[0.5,1,0],[0.75,1,0],[1,1,0],[0,0.25,0],[0,0.5,0],[0,0.75,0],[1,0.25,0],[1,0.5,0],[1,0.75,0]];outlineConnect=0;fontColor=#232F3E;gradientColor=#945DF2;gradientDirection=north;fillColor=#5A30B5;strokeColor=#ffffff;dashed=0;verticalLabelPosition=bottom;verticalAlign=top;align=center;html=1;fontSize=12;fontStyle=0;aspect=fixed;shape=mxgraph.aws4.resourceIcon;resIcon=mxgraph.aws4.cloudfront;" parent="37" vertex="1">
                    <mxGeometry x="5.285714285714286" width="50" height="50" as="geometry"/>
                </mxCell>
                <mxCell id="34" value="&lt;p&gt;&lt;font face=&quot;Garamond&quot;&gt;Amazon CloudFront&lt;/font&gt;&lt;/p&gt;" style="text;html=1;strokeColor=none;fillColor=none;align=center;verticalAlign=middle;whiteSpace=wrap;rounded=0;" parent="37" vertex="1">
                    <mxGeometry y="51.66666666666667" width="63.42857142857143" height="31.000000000000004" as="geometry"/>
                </mxCell>
                <mxCell id="28" value="" style="dashed=0;html=1;shape=mxgraph.aws3.cloud;fillColor=#F58536;gradientColor=none;dashed=0;movable=1;resizable=1;rotatable=1;deletable=1;editable=1;connectable=1;" parent="36" vertex="1">
                    <mxGeometry x="21.142857142857142" y="-20.666666666666668" width="54.971428571428575" height="37.2" as="geometry"/>
                </mxCell>
                <mxCell id="7" value="" style="outlineConnect=0;fontColor=#232F3E;gradientColor=none;fillColor=#3F8624;strokeColor=none;dashed=0;verticalLabelPosition=bottom;verticalAlign=top;align=center;html=1;fontSize=12;fontStyle=0;aspect=fixed;pointerEvents=1;shape=mxgraph.aws4.bucket_with_objects;rounded=0;" parent="36" vertex="1">
                    <mxGeometry x="450" y="179" width="39.43" height="41" as="geometry"/>
                </mxCell>
                <mxCell id="35" value="Amazon S3" style="text;html=1;strokeColor=none;fillColor=none;align=center;verticalAlign=middle;whiteSpace=wrap;rounded=0;fontFamily=Garamond;" parent="36" vertex="1">
                    <mxGeometry x="438.0028571428572" y="220.00333333333336" width="63.42857142857143" height="31.000000000000004" as="geometry"/>
                </mxCell>
                <mxCell id="58" value="" style="group" parent="36" vertex="1" connectable="0">
                    <mxGeometry x="35.129999999999995" y="40" width="60" height="70" as="geometry"/>
                </mxCell>
                <mxCell id="56" value="" style="sketch=0;outlineConnect=0;fontColor=#232F3E;gradientColor=none;fillColor=#3F8624;strokeColor=none;dashed=0;verticalLabelPosition=bottom;verticalAlign=top;align=center;html=1;fontSize=12;fontStyle=0;aspect=fixed;pointerEvents=1;shape=mxgraph.aws4.certificate_manager;fontFamily=Garamond;" parent="58" vertex="1">
                    <mxGeometry x="14.870000000000005" width="30.26" height="40" as="geometry"/>
                </mxCell>
                <mxCell id="57" value="Certificate manager" style="text;html=1;strokeColor=none;fillColor=none;align=center;verticalAlign=middle;whiteSpace=wrap;rounded=0;fontFamily=Garamond;" parent="58" vertex="1">
                    <mxGeometry y="40" width="60" height="30" as="geometry"/>
                </mxCell>
                <mxCell id="63" value="" style="group" parent="1" vertex="1" connectable="0">
                    <mxGeometry x="680" y="10" width="60" height="70" as="geometry"/>
                </mxCell>
                <mxCell id="10" value="" style="dashed=0;outlineConnect=0;html=1;align=center;labelPosition=center;verticalLabelPosition=bottom;verticalAlign=top;shape=mxgraph.webicons.github;gradientColor=#DFDEDE;rounded=0;" parent="63" vertex="1">
                    <mxGeometry x="10" width="40" height="40" as="geometry"/>
                </mxCell>
                <mxCell id="53" value="GitHub&amp;nbsp;" style="text;html=1;strokeColor=none;fillColor=none;align=center;verticalAlign=middle;whiteSpace=wrap;rounded=0;fontFamily=Garamond;" parent="63" vertex="1">
                    <mxGeometry y="40" width="60" height="30" as="geometry"/>
                </mxCell>
                <mxCell id="64" value="" style="group" parent="1" vertex="1" connectable="0">
                    <mxGeometry x="390" y="11.25" width="60" height="68.75" as="geometry"/>
                </mxCell>
                <mxCell id="12" value="" style="verticalLabelPosition=bottom;html=1;verticalAlign=top;align=center;strokeColor=none;fillColor=#00BEF2;shape=mxgraph.azure.visual_studio_online;rounded=0;" parent="64" vertex="1">
                    <mxGeometry x="10" width="40" height="37.5" as="geometry"/>
                </mxCell>
                <mxCell id="54" value="Version Control" style="text;html=1;strokeColor=none;fillColor=none;align=center;verticalAlign=middle;whiteSpace=wrap;rounded=0;fontFamily=Garamond;" parent="64" vertex="1">
                    <mxGeometry y="38.75" width="60" height="30" as="geometry"/>
                </mxCell>
            </root>
        </mxGraphModel>
    </diagram>
</mxfile>